<mxfile host="Electron" modified="2023-09-24T14:19:42.904Z" agent="Mozilla/5.0 (Windows NT 10.0; Win64; x64) AppleWebKit/537.36 (KHTML, like Gecko) draw.io/21.7.5 Chrome/114.0.5735.289 Electron/25.8.1 Safari/537.36" etag="GHQrBu340kgBhOuJ8uIK" version="21.7.5" type="device">
  <diagram name="페이지-1" id="oYEOmsEU-r3RK-yHsZw6">
    <mxGraphModel dx="2245" dy="835" grid="1" gridSize="10" guides="1" tooltips="1" connect="1" arrows="1" fold="1" page="1" pageScale="1" pageWidth="827" pageHeight="1169" math="0" shadow="0">
      <root>
        <mxCell id="0" />
        <mxCell id="1" parent="0" />
        <mxCell id="fDYHZz1mXMlbd0j3325K-1" value="Player_Status Class&lt;br&gt;&lt;br&gt;ID&lt;br&gt;LV&lt;br&gt;EXP&lt;br&gt;Base_HP(max),&lt;br&gt;Base_Stamina(max),&lt;br&gt;BaseATT&lt;br&gt;BaseDP&lt;br&gt;STR, = 레벨업당 HP증가량, 방어력++ ;&lt;br&gt;DEX, = 회피율&lt;br&gt;INT, = 레벨업당 스테미너 증가량++;&lt;br&gt;LUK = 크리티컬 확률&lt;br&gt;Ability Point&lt;br&gt;&lt;br&gt;critical_Min&lt;br&gt;critical_Max&lt;br&gt;CriticalRate,&lt;br&gt;DodgeRate&lt;br&gt;&lt;br&gt;&lt;br&gt;최종데미지를 구해주는 함수 Min, Max&lt;br&gt;&lt;br&gt;크리티컬데미지를 구해주는 함수 Min, Max&lt;br&gt;&lt;br&gt;레벨업 함수 =&amp;gt; 기본 HP, MP 10씩 증가&lt;br&gt;Ability Point 5제공&lt;br&gt;&lt;br&gt;크리티컬 확률 Luk1당 0.5% 증가&lt;br&gt;회피율 증가량 DEX1당 0.5%증가&lt;br&gt;HP증가량 = STR1 당 1 증가&lt;br&gt;스테미너 증가량 INT 1당 1증가" style="rounded=1;whiteSpace=wrap;html=1;" parent="1" vertex="1">
          <mxGeometry x="-500" y="90" width="441" height="540" as="geometry" />
        </mxCell>
        <mxCell id="fDYHZz1mXMlbd0j3325K-2" value="" style="rounded=1;whiteSpace=wrap;html=1;" parent="1" vertex="1">
          <mxGeometry x="470" y="110" width="280" height="480" as="geometry" />
        </mxCell>
        <mxCell id="fDYHZz1mXMlbd0j3325K-3" value="ID" style="rounded=0;whiteSpace=wrap;html=1;" parent="1" vertex="1">
          <mxGeometry x="470" y="140" width="100" height="20" as="geometry" />
        </mxCell>
        <mxCell id="fDYHZz1mXMlbd0j3325K-4" value="LV" style="rounded=0;whiteSpace=wrap;html=1;" parent="1" vertex="1">
          <mxGeometry x="470" y="160" width="100" height="20" as="geometry" />
        </mxCell>
        <mxCell id="fDYHZz1mXMlbd0j3325K-5" value="EXP" style="rounded=0;whiteSpace=wrap;html=1;" parent="1" vertex="1">
          <mxGeometry x="470" y="180" width="100" height="20" as="geometry" />
        </mxCell>
        <mxCell id="fDYHZz1mXMlbd0j3325K-6" value="HP" style="rounded=0;whiteSpace=wrap;html=1;" parent="1" vertex="1">
          <mxGeometry x="470" y="200" width="100" height="20" as="geometry" />
        </mxCell>
        <mxCell id="fDYHZz1mXMlbd0j3325K-7" value="Stamina" style="rounded=0;whiteSpace=wrap;html=1;" parent="1" vertex="1">
          <mxGeometry x="470" y="220" width="100" height="20" as="geometry" />
        </mxCell>
        <mxCell id="fDYHZz1mXMlbd0j3325K-8" value="공격력" style="rounded=0;whiteSpace=wrap;html=1;" parent="1" vertex="1">
          <mxGeometry x="470" y="240" width="100" height="20" as="geometry" />
        </mxCell>
        <mxCell id="fDYHZz1mXMlbd0j3325K-9" value="방어력" style="rounded=0;whiteSpace=wrap;html=1;" parent="1" vertex="1">
          <mxGeometry x="470" y="260" width="100" height="20" as="geometry" />
        </mxCell>
        <mxCell id="fDYHZz1mXMlbd0j3325K-10" value="STR" style="rounded=0;whiteSpace=wrap;html=1;" parent="1" vertex="1">
          <mxGeometry x="470" y="280" width="100" height="20" as="geometry" />
        </mxCell>
        <mxCell id="fDYHZz1mXMlbd0j3325K-11" value="DEX" style="rounded=0;whiteSpace=wrap;html=1;" parent="1" vertex="1">
          <mxGeometry x="470" y="300" width="100" height="20" as="geometry" />
        </mxCell>
        <mxCell id="fDYHZz1mXMlbd0j3325K-12" value="INT" style="rounded=0;whiteSpace=wrap;html=1;" parent="1" vertex="1">
          <mxGeometry x="470" y="320" width="100" height="20" as="geometry" />
        </mxCell>
        <mxCell id="fDYHZz1mXMlbd0j3325K-13" value="LUK" style="rounded=0;whiteSpace=wrap;html=1;" parent="1" vertex="1">
          <mxGeometry x="470" y="340" width="100" height="20" as="geometry" />
        </mxCell>
        <mxCell id="fDYHZz1mXMlbd0j3325K-14" value="Ability Point" style="rounded=0;whiteSpace=wrap;html=1;" parent="1" vertex="1">
          <mxGeometry x="470" y="360" width="100" height="20" as="geometry" />
        </mxCell>
        <mxCell id="fDYHZz1mXMlbd0j3325K-15" value="ID" style="rounded=0;whiteSpace=wrap;html=1;" parent="1" vertex="1">
          <mxGeometry x="570" y="140" width="100" height="20" as="geometry" />
        </mxCell>
        <mxCell id="fDYHZz1mXMlbd0j3325K-16" value="LV" style="rounded=0;whiteSpace=wrap;html=1;" parent="1" vertex="1">
          <mxGeometry x="570" y="160" width="100" height="20" as="geometry" />
        </mxCell>
        <mxCell id="fDYHZz1mXMlbd0j3325K-17" value="EXP" style="rounded=0;whiteSpace=wrap;html=1;" parent="1" vertex="1">
          <mxGeometry x="570" y="180" width="100" height="20" as="geometry" />
        </mxCell>
        <mxCell id="fDYHZz1mXMlbd0j3325K-18" value="HP" style="rounded=0;whiteSpace=wrap;html=1;" parent="1" vertex="1">
          <mxGeometry x="570" y="200" width="100" height="20" as="geometry" />
        </mxCell>
        <mxCell id="fDYHZz1mXMlbd0j3325K-19" value="Stamina" style="rounded=0;whiteSpace=wrap;html=1;" parent="1" vertex="1">
          <mxGeometry x="570" y="220" width="100" height="20" as="geometry" />
        </mxCell>
        <mxCell id="fDYHZz1mXMlbd0j3325K-20" value="데미지 Min ~ Max" style="rounded=0;whiteSpace=wrap;html=1;" parent="1" vertex="1">
          <mxGeometry x="580" y="240" width="100" height="20" as="geometry" />
        </mxCell>
        <mxCell id="fDYHZz1mXMlbd0j3325K-21" value="회피율 %" style="rounded=0;whiteSpace=wrap;html=1;" parent="1" vertex="1">
          <mxGeometry x="580" y="300" width="100" height="20" as="geometry" />
        </mxCell>
        <mxCell id="fDYHZz1mXMlbd0j3325K-22" value="크리티컬 확률" style="rounded=0;whiteSpace=wrap;html=1;" parent="1" vertex="1">
          <mxGeometry x="580" y="280" width="100" height="20" as="geometry" />
        </mxCell>
        <mxCell id="fDYHZz1mXMlbd0j3325K-23" value="크리티컬 데미지" style="rounded=0;whiteSpace=wrap;html=1;" parent="1" vertex="1">
          <mxGeometry x="580" y="260" width="100" height="20" as="geometry" />
        </mxCell>
        <mxCell id="E2JUhTGLTqq4bXBJUixX-1" value="초기 생성자에서 초기 능력치 할당" style="rounded=1;whiteSpace=wrap;html=1;" parent="1" vertex="1">
          <mxGeometry x="-27" y="90" width="441" height="540" as="geometry" />
        </mxCell>
        <mxCell id="E2JUhTGLTqq4bXBJUixX-2" value="Action" style="rounded=1;whiteSpace=wrap;html=1;" parent="1" vertex="1">
          <mxGeometry x="140" y="660" width="120" height="60" as="geometry" />
        </mxCell>
        <mxCell id="E2JUhTGLTqq4bXBJUixX-3" value="장비창을 열었을 때" style="rounded=1;whiteSpace=wrap;html=1;" parent="1" vertex="1">
          <mxGeometry x="-120" y="680" width="120" height="60" as="geometry" />
        </mxCell>
        <mxCell id="E2JUhTGLTqq4bXBJUixX-4" value="스텟을 찍었을 때" style="rounded=1;whiteSpace=wrap;html=1;" parent="1" vertex="1">
          <mxGeometry x="30" y="750" width="120" height="60" as="geometry" />
        </mxCell>
        <mxCell id="E2JUhTGLTqq4bXBJUixX-5" value="장비를 착용 또는 미착용 중 버프를 썼을 때, 해제했을 떄" style="rounded=1;whiteSpace=wrap;html=1;" parent="1" vertex="1">
          <mxGeometry x="375" y="750" width="120" height="60" as="geometry" />
        </mxCell>
        <mxCell id="E2JUhTGLTqq4bXBJUixX-6" value="버프중, 버프중이 아니면서&lt;br&gt;장비를 장착 및 해제했을 때" style="rounded=1;whiteSpace=wrap;html=1;" parent="1" vertex="1">
          <mxGeometry x="565" y="750" width="220" height="60" as="geometry" />
        </mxCell>
        <mxCell id="E2JUhTGLTqq4bXBJUixX-8" value="레벨업했을 때" style="rounded=1;whiteSpace=wrap;html=1;" parent="1" vertex="1">
          <mxGeometry x="-90" y="750" width="120" height="60" as="geometry" />
        </mxCell>
        <mxCell id="E2JUhTGLTqq4bXBJUixX-9" value="공격스킬을 사용했을 때" style="rounded=1;whiteSpace=wrap;html=1;" parent="1" vertex="1">
          <mxGeometry x="-280" y="750" width="120" height="60" as="geometry" />
        </mxCell>
        <mxCell id="E2JUhTGLTqq4bXBJUixX-10" value="버프스킬을 사용했을 때" style="rounded=1;whiteSpace=wrap;html=1;" parent="1" vertex="1">
          <mxGeometry x="-413" y="750" width="120" height="60" as="geometry" />
        </mxCell>
        <mxCell id="E2JUhTGLTqq4bXBJUixX-27" value="버프중일때는 base능력치 + 장비능력치 더한 후 버프스킬power 곱해주기" style="rounded=1;whiteSpace=wrap;html=1;" parent="1" vertex="1">
          <mxGeometry x="565" y="810" width="220" height="60" as="geometry" />
        </mxCell>
        <mxCell id="E2JUhTGLTqq4bXBJUixX-28" value="버프중이면&lt;br&gt;base능력치 + 장비능력치 * 버프스킬파워" style="rounded=1;whiteSpace=wrap;html=1;" parent="1" vertex="1">
          <mxGeometry x="350" y="810" width="170" height="90" as="geometry" />
        </mxCell>
        <mxCell id="E2JUhTGLTqq4bXBJUixX-29" value="Open" style="rounded=1;whiteSpace=wrap;html=1;" parent="1" vertex="1">
          <mxGeometry x="-110" y="740" width="70" height="20" as="geometry" />
        </mxCell>
        <mxCell id="E2JUhTGLTqq4bXBJUixX-30" value="STR, INT에 따른 HP, 스테미너 증가&lt;br&gt;및 AP지급" style="rounded=1;whiteSpace=wrap;html=1;" parent="1" vertex="1">
          <mxGeometry x="-80" y="810" width="120" height="60" as="geometry" />
        </mxCell>
        <mxCell id="mLQIIpVvxXRIIKxPuPEC-1" value="장비, 버프스킬사용시 값이 변경될 능력치는 기본적용될 Base값과 최종적으로 적용될 Final값이 각각 따로 필요하다.&lt;br&gt;왜냐하면 기준이될 Base값은 변하면 안되기 때문이다.&lt;br&gt;&lt;br&gt;그리고 UI 업데이트는 Final 값을 기준으로 업데이트해서 보여준다." style="rounded=1;whiteSpace=wrap;html=1;" vertex="1" parent="1">
          <mxGeometry x="-380" y="910" width="350" height="230" as="geometry" />
        </mxCell>
      </root>
    </mxGraphModel>
  </diagram>
</mxfile>
